<svg width="21" height="20" viewBox="0 0 21 20" fill="none" xmlns="http://www.w3.org/2000/svg">
    <path d="M18.4396 11.0004C18.2196 11.0004 17.9896 10.9304 17.7696 10.8804C17.3241 10.7822 16.8863 10.6518 16.4596 10.4904C15.9957 10.3216 15.4858 10.3304 15.0279 10.515C14.5701 10.6996 14.1967 11.047 13.9796 11.4904L13.7596 11.9404C12.7856 11.3985 11.8906 10.7256 11.0996 9.94036C10.3144 9.14937 9.64143 8.25435 9.09961 7.28036L9.51961 7.00036C9.96298 6.78327 10.3104 6.40989 10.495 5.95205C10.6796 5.49421 10.6884 4.98427 10.5196 4.52036C10.3608 4.09278 10.2305 3.65515 10.1296 3.21036C10.0796 2.99036 10.0396 2.76036 10.0096 2.53036C9.88818 1.82598 9.51924 1.1881 8.96923 0.731596C8.41923 0.275093 7.72431 0.0299652 7.00961 0.0403564H4.00961C3.57864 0.0363098 3.15186 0.12517 2.75832 0.300887C2.36478 0.476604 2.01372 0.735052 1.72904 1.05864C1.44436 1.38222 1.23275 1.76335 1.1086 2.17607C0.984454 2.58879 0.950692 3.02342 1.00961 3.45036C1.54235 7.63974 3.45564 11.5322 6.44726 14.513C9.43889 17.4938 13.3383 19.3929 17.5296 19.9104H17.9096C18.647 19.9114 19.359 19.6409 19.9096 19.1504C20.226 18.8674 20.4787 18.5205 20.6511 18.1327C20.8235 17.7448 20.9116 17.3248 20.9096 16.9004V13.9004C20.8974 13.2057 20.6444 12.5369 20.194 12.008C19.7435 11.4791 19.1234 11.123 18.4396 11.0004ZM18.9396 17.0004C18.9394 17.1423 18.909 17.2827 18.8504 17.412C18.7918 17.5413 18.7063 17.6566 18.5996 17.7504C18.4882 17.8474 18.3576 17.9198 18.2163 17.9629C18.075 18.0059 17.9262 18.0187 17.7796 18.0004C14.0345 17.5202 10.5558 15.8068 7.89233 13.1306C5.22881 10.4545 3.53202 6.96769 3.06961 3.22036C3.0537 3.07387 3.06765 2.92569 3.11061 2.78475C3.15358 2.64381 3.22468 2.51304 3.31961 2.40036C3.41332 2.29369 3.52867 2.2082 3.65799 2.14957C3.78731 2.09095 3.92763 2.06054 4.06961 2.06036H7.06961C7.30216 2.05518 7.52924 2.13124 7.71176 2.27543C7.89428 2.41962 8.02082 2.62293 8.06961 2.85036C8.10961 3.12369 8.15961 3.39369 8.21961 3.66036C8.33513 4.1875 8.48887 4.70554 8.67961 5.21036L7.27961 5.86036C7.15991 5.91528 7.05223 5.9933 6.96277 6.08995C6.87331 6.1866 6.80381 6.29997 6.75828 6.42355C6.71275 6.54713 6.69208 6.67849 6.69746 6.81008C6.70284 6.94167 6.73415 7.0709 6.78961 7.19036C8.22881 10.2731 10.7069 12.7512 13.7896 14.1904C14.0331 14.2904 14.3062 14.2904 14.5496 14.1904C14.6743 14.1457 14.7889 14.0768 14.8868 13.9875C14.9846 13.8983 15.0638 13.7905 15.1196 13.6704L15.7396 12.2704C16.2566 12.4552 16.7842 12.6088 17.3196 12.7304C17.5863 12.7904 17.8563 12.8404 18.1296 12.8804C18.357 12.9291 18.5604 13.0557 18.7045 13.2382C18.8487 13.4207 18.9248 13.6478 18.9196 13.8804L18.9396 17.0004Z" fill="#306BDD"/>
</svg>
